<?xml version="1.0" encoding="UTF-8" standalone="no"?> <svg width="64" height="64" viewBox="0 0 64 64" fill="none" xmlns="http://www.w3.org/2000/svg">
<path d="M62.447 24.105L60.447 23.105C60.3082 23.0358 60.1551 22.9999 60 23H45.121C44.5037 23 43.9002 23.183 43.3869 23.5259C42.8737 23.8688 42.4736 24.3563 42.2373 24.9266C42.0011 25.4969 41.9393 26.1245 42.0597 26.7299C42.1802 27.3354 42.4775 27.8915 42.914 28.328L44.939 30.354L44.439 33.868C43.9231 34.2593 43.5037 34.7635 43.213 35.342L42.2 37.355C40.0997 41.5719 39.0044 46.218 39 50.929C39.0006 53.6871 39.1965 56.4416 39.586 59.172C39.7422 60.2326 40.2734 61.202 41.0833 61.9043C41.8932 62.6067 42.928 62.9954 44 63H53C54.0609 63 55.0783 62.5786 55.8284 61.8284C56.5786 61.0783 57 60.0609 57 59V47C57.0022 46.2091 56.7662 45.4359 56.3228 44.7809C55.8794 44.126 55.2491 43.6197 54.514 43.328L52.992 42.72C52.6986 42.6038 52.4469 42.4019 52.27 42.1405C52.093 41.8792 51.9989 41.5706 52 41.255C52 41.1513 52.01 41.0478 52.03 40.946L52.945 36.373C53.0645 35.7771 52.9869 35.1586 52.7238 34.6107C52.4608 34.0628 52.0267 33.6154 51.487 33.336L51.268 31.807C52.1349 33.168 53.2851 34.3262 54.6401 35.2025C55.9951 36.0788 57.5231 36.6527 59.12 36.885L59.859 36.99C59.9057 36.9968 59.9528 37.0001 60 37C60.1978 37 60.391 36.9413 60.5555 36.8314C60.7199 36.7215 60.848 36.5654 60.9237 36.3827C60.9993 36.2 61.0192 35.9989 60.9806 35.805C60.942 35.611 60.8468 35.4329 60.707 35.293L59.536 34.121C58.1535 32.7448 57.2812 30.9385 57.063 29H60C60.1551 29.0001 60.3082 28.9642 60.447 28.895L62.447 27.895C62.6132 27.8119 62.753 27.6842 62.8507 27.5261C62.9484 27.368 63.0001 27.1858 63 27V25C63.0001 24.8142 62.9484 24.632 62.8507 24.4739C62.753 24.3158 62.6132 24.1881 62.447 24.105V24.105ZM44.328 26.914C44.1711 26.7572 44.0642 26.5574 44.0209 26.3399C43.9776 26.1223 43.9998 25.8968 44.0847 25.6919C44.1696 25.487 44.3134 25.3119 44.4979 25.1887C44.6823 25.0655 44.8992 24.9999 45.121 25H57V27H54C53.8449 26.9999 53.6918 27.0358 53.553 27.105L49.764 29H46.414L44.328 26.914ZM46.867 31H49.133L49.419 33H47C46.8586 33.0026 46.7174 33.0123 46.577 33.029L46.867 31ZM41 50.929C41 50.285 41.029 49.642 41.074 49H55V55H41.149C41.051 53.643 41 52.283 41 50.929ZM53 61H44C43.4087 60.9975 42.838 60.7831 42.3912 60.3958C41.9445 60.0085 41.6513 59.4739 41.565 58.889C41.476 58.262 41.399 57.632 41.33 57H55V59C55 59.5304 54.7893 60.0391 54.4142 60.4142C54.0391 60.7893 53.5304 61 53 61ZM52.249 44.577L53.771 45.186C54.1346 45.3296 54.4463 45.5796 54.6656 45.9032C54.8849 46.2269 55.0014 46.6091 55 47H41.288C41.7121 43.9566 42.6255 41.0018 43.993 38.25L45 36.236C45.1846 35.8637 45.4698 35.5506 45.8233 35.3321C46.1768 35.1137 46.5844 34.9986 47 35H50.18C50.3973 35 50.6057 35.0863 50.7595 35.2398C50.9132 35.3934 50.9997 35.6017 51 35.819C51.0003 35.8731 50.9949 35.927 50.984 35.98L50.069 40.554C49.9057 41.3736 50.0342 42.2245 50.4324 42.9592C50.8305 43.694 51.4732 44.2663 52.249 44.577V44.577ZM57 34.22C55.0249 33.3532 53.4155 31.8223 52.451 29.893L54.236 29H55.051C55.2209 30.8833 55.8941 32.6862 57 34.22V34.22ZM61 26.382L59.764 27H59V25H59.764L61 25.618V26.382Z" fill="black"/>
<path d="M35 63C36.0609 63 37.0783 62.5786 37.8284 61.8284C38.5786 61.0783 39 60.0609 39 59C39.0002 54.9257 38.4321 50.8713 37.312 46.954L37.135 46.333C36.9952 45.8428 36.9636 45.3281 37.0421 44.8245C37.1207 44.3209 37.3076 43.8403 37.59 43.416L38.059 42.716C38.7597 41.6692 39.0858 40.4162 38.9843 39.1606C38.8828 37.905 38.3597 36.7207 37.5 35.8L37.946 28H39C39.2652 28 39.5196 27.8946 39.7071 27.7071C39.8946 27.5196 40 27.2652 40 27V21C40 20.7348 39.8946 20.4804 39.7071 20.2929C39.5196 20.1054 39.2652 20 39 20H38V15C37.9921 12.7026 37.3282 10.4553 36.0866 8.52243C34.8449 6.58952 33.0771 5.0514 30.991 4.089C30.991 4.058 31 4.03 31 4C31 3.20435 30.6839 2.44129 30.1213 1.87868C29.5587 1.31607 28.7956 1 28 1H14C13.2044 1 12.4413 1.31607 11.8787 1.87868C11.3161 2.44129 11 3.20435 11 4C11 4.03 11.008 4.058 11.009 4.088C8.923 5.05076 7.15526 6.58911 5.91363 8.52215C4.672 10.4552 4.0081 12.7026 4 15V20H3C2.73478 20 2.48043 20.1054 2.29289 20.2929C2.10536 20.4804 2 20.7348 2 21V27C2 27.2652 2.10536 27.5196 2.29289 27.7071C2.48043 27.8946 2.73478 28 3 28H4.055L4.465 35.177C4.32457 35.264 4.20835 35.3851 4.12708 35.5289C4.04581 35.6728 4.0021 35.8348 4 36V39C3.73478 39 3.48043 39.1054 3.29289 39.2929C3.10536 39.4804 3 39.7348 3 40V43.78C1.68896 46.4903 1.00537 49.4612 1 52.472V59C1 60.0609 1.42143 61.0783 2.17157 61.8284C2.92172 62.5786 3.93913 63 5 63H35ZM11 41V43H5V41H11ZM4.638 45H11.638L15.055 47.848C16.019 48.6512 16.6717 49.7662 16.9 51H3.069C3.24208 48.9245 3.77291 46.8946 4.638 45V45ZM17 53V57H3V53H17ZM36.4 41.6L35.931 42.3C35.4877 42.9652 35.1943 43.7187 35.071 44.5085C34.9478 45.2983 34.9976 46.1054 35.217 46.874L35.395 47.495C36.4623 51.2367 37.0025 55.109 37 59C37 59.5304 36.7893 60.0391 36.4142 60.4142C36.0391 60.7893 35.5304 61 35 61H25C24.4696 61 23.9609 60.7893 23.5858 60.4142C23.2107 60.0391 23 59.5304 23 59C22.9996 55.1105 23.5415 51.2399 24.61 47.5L24.788 46.879C25.0075 46.1102 25.0573 45.3029 24.934 44.513C24.8107 43.7231 24.5173 42.9694 24.074 42.304L23.605 41.604C23.3343 41.1984 23.1489 40.7421 23.0599 40.2627C22.9709 39.7833 22.9802 39.2908 23.0873 38.8151C23.1944 38.3394 23.3969 37.8904 23.6828 37.4954C23.9686 37.1004 24.3317 36.7675 24.75 36.517L27.277 35H32.723L35.25 36.517C35.6682 36.7671 36.0312 37.0995 36.3172 37.494C36.6031 37.8885 36.806 38.337 36.9135 38.8122C37.021 39.2875 37.031 39.7796 36.9427 40.2588C36.8544 40.738 36.6698 41.1943 36.4 41.6V41.6ZM32 31V33H28V31H32ZM31 29H29V27H31V29ZM35.577 34.38L34 33.434V30C34 29.7348 33.8946 29.4804 33.7071 29.2929C33.5196 29.1054 33.2652 29 33 29V28H35.941L35.577 34.38ZM38 26H33C33 25.7348 32.8946 25.4804 32.7071 25.2929C32.5196 25.1054 32.2652 25 32 25H28C27.7348 25 27.4804 25.1054 27.2929 25.2929C27.1054 25.4804 27 25.7348 27 26H23V22H38V26ZM14 3H28C28.2652 3 28.5196 3.10536 28.7071 3.29289C28.8946 3.48043 29 3.73478 29 4C29 4.26522 28.8946 4.51957 28.7071 4.70711C28.5196 4.89464 28.2652 5 28 5H14C13.7348 5 13.4804 4.89464 13.2929 4.70711C13.1054 4.51957 13 4.26522 13 4C13 3.73478 13.1054 3.48043 13.2929 3.29289C13.4804 3.10536 13.7348 3 14 3V3ZM6 15C6.00636 13.104 6.54863 11.2483 7.56425 9.64723C8.57987 8.04612 10.0275 6.76477 11.74 5.951C12.0187 6.27858 12.365 6.54196 12.7551 6.72303C13.1452 6.90411 13.5699 6.99859 14 7H28C28.4301 6.99853 28.8547 6.90401 29.2449 6.72294C29.635 6.54187 29.9813 6.27853 30.26 5.951C31.9724 6.76496 33.4199 8.04636 34.4354 9.64742C35.451 11.2485 35.9934 13.104 36 15V20H23V19C23 18.7348 22.8946 18.4804 22.7071 18.2929C22.5196 18.1054 22.2652 18 22 18H12C11.7348 18 11.4804 18.1054 11.2929 18.2929C11.1054 18.4804 11 18.7348 11 19V20H6V15ZM21 20V31C21 31.2652 20.8946 31.5196 20.7071 31.7071C20.5196 31.8946 20.2652 32 20 32H14C13.7348 32 13.4804 31.8946 13.2929 31.7071C13.1054 31.5196 13 31.2652 13 31V20H21ZM4 22H11V26H4V22ZM11 28V31C11 31.7956 11.3161 32.5587 11.8787 33.1213C12.4413 33.6839 13.2044 34 14 34H20C20.7956 34 21.5587 33.6839 22.1213 33.1213C22.6839 32.5587 23 31.7956 23 31V28H27V29C26.7348 29 26.4804 29.1054 26.2929 29.2929C26.1054 29.4804 26 29.7348 26 30V33.434L23.72 34.8C23.0696 35.1898 22.5051 35.7077 22.0608 36.3222C21.6165 36.9367 21.3017 37.635 21.1353 38.3748C20.969 39.1147 20.9546 39.8806 21.0931 40.6261C21.2316 41.3716 21.5201 42.0813 21.941 42.712L22.409 43.412C22.6918 43.8363 22.879 44.3171 22.9577 44.8209C23.0365 45.3247 23.0048 45.8396 22.865 46.33L22.687 46.951C21.5675 50.8694 20.9997 54.9248 21 59C21.0041 59.7043 21.196 60.3947 21.556 61H18.444C18.8039 60.3947 18.9959 59.7043 19 59V52C19.0015 50.9141 18.7634 49.8413 18.3028 48.8579C17.8421 47.8746 17.1702 47.0049 16.335 46.311L13 43.531V40C13 39.7348 12.8946 39.4804 12.7071 39.2929C12.5196 39.1054 12.2652 39 12 39V36C12 35.7348 11.8946 35.4804 11.7071 35.2929C11.5196 35.1054 11.2652 35 11 35H6.459L6.059 28H11ZM6 37H10V39H6V37ZM3 59H17C17 59.5304 16.7893 60.0391 16.4142 60.4142C16.0391 60.7893 15.5304 61 15 61H5C4.46957 61 3.96086 60.7893 3.58579 60.4142C3.21071 60.0391 3 59.5304 3 59Z" fill="black"/>
<path d="M29.177 45.4318C28.646 46.1998 26 50.1258 26 51.9998C26 53.0607 26.4214 54.0781 27.1716 54.8282C27.9217 55.5784 28.9391 55.9998 30 55.9998C31.0609 55.9998 32.0783 55.5784 32.8284 54.8282C33.5786 54.0781 34 53.0607 34 51.9998C34 50.1258 31.354 46.1998 30.823 45.4318C30.7261 45.3057 30.6014 45.2035 30.4587 45.1332C30.316 45.0629 30.1591 45.0264 30 45.0264C29.8409 45.0264 29.684 45.0629 29.5413 45.1332C29.3986 45.2035 29.2739 45.3057 29.177 45.4318V45.4318ZM30 53.9998C29.4696 53.9998 28.9609 53.7891 28.5858 53.414C28.2107 53.039 28 52.5303 28 51.9998C28 51.3378 28.933 49.5248 30 47.8208C31.067 49.5208 32 51.3378 32 51.9998C32 52.5303 31.7893 53.039 31.4142 53.414C31.0391 53.7891 30.5304 53.9998 30 53.9998Z" fill="black"/>
</svg>
