<?xml version="1.0" encoding="UTF-8" standalone="no"?> <svg width="64" height="64" viewBox="0 0 64 64" fill="none" xmlns="http://www.w3.org/2000/svg">
<path d="M58.2601 21.1598C58.1877 20.8036 58.0197 20.474 57.7741 20.2062C57.5285 19.9383 57.2145 19.7425 56.866 19.6397C56.5174 19.5369 56.1475 19.531 55.7958 19.6226C55.4442 19.7142 55.1241 19.8999 54.8701 20.1598L46.8701 28.1598L38.2001 25.8398L35.8701 17.1598L43.8701 9.15976C44.1755 8.85236 44.3728 8.45407 44.4323 8.02484C44.4918 7.59562 44.4103 7.15867 44.2001 6.77976C44.0658 6.51955 43.8731 6.2939 43.6372 6.12043C43.4013 5.94696 43.1285 5.83037 42.8401 5.77976C28.4301 2.77976 15.8401 17.0698 20.5401 30.9398L5.92007 45.5498C5.73412 45.7355 5.5866 45.9561 5.48595 46.1989C5.3853 46.4417 5.3335 46.7019 5.3335 46.9648C5.3335 47.2276 5.3853 47.4878 5.48595 47.7306C5.5866 47.9734 5.73412 48.194 5.92007 48.3798L15.6401 58.0998C15.8258 58.2857 16.0464 58.4332 16.2892 58.5339C16.532 58.6345 16.7922 58.6863 17.0551 58.6863C17.3179 58.6863 17.5782 58.6345 17.821 58.5339C18.0637 58.4332 18.2843 58.2857 18.4701 58.0998L33.1001 43.4498C47.0001 48.1698 61.2101 35.5498 58.2601 21.1598Z" fill="black"/>
</svg>
